<svg xmlns="http://www.w3.org/2000/svg" xmlns:xlink="http://www.w3.org/1999/xlink" width="474.473694" height="484.589111" viewBox="0 0 474.474 484.589"><path d="M99.4217 263.559C98.7425 271.558 104.172 313.896 106.974 330.497C108.308 338.362 111.965 351.176 110.649 357.98C108.77 367.462 108.227 379.733 109.262 386.878C109.914 391.218 111.968 411.23 109.029 418.55C107.492 422.389 104.675 442.06 104.675 442.06C97.3349 460.591 101.477 459.68 101.477 459.68C103.75 462.468 107.642 459.899 107.642 459.899C110.607 461.789 112.66 459.449 112.66 459.449C115.205 461.556 118.172 459.19 118.172 459.19C121.37 460.85 124.335 457.789 124.335 457.789C126.171 458.714 126.62 457.546 126.62 457.546C132.13 457.193 123.546 439.559 123.546 439.559C121.49 423.723 125.586 414.908 125.586 414.908C139.001 375.126 139.682 364.569 134.32 349.576C132.809 345.248 132.427 343.535 133.122 341.656C134.729 337.319 133.558 319.875 135.517 312.949C139.298 299.59 143.027 265.711 144.971 249.903C147.583 228.61 135.718 200.06 135.718 200.06C133.12 188.441 136.929 147.046 136.929 147.046C142.249 155.324 142.046 169.936 142.046 169.936C141.201 185.262 154.426 208.684 154.426 208.684C160.781 218.363 163.187 227.546 163.187 228.228C163.187 231.016 162.577 237.766 162.577 237.766L162.821 243.645C162.93 245.142 163.773 250.296 163.636 252.787C162.644 268.119 165.08 265.235 165.08 265.235C167.135 265.235 169.394 252.897 169.394 252.897C169.394 256.079 168.617 265.604 170.333 269.196C172.386 273.482 173.896 268.461 173.923 267.454C174.466 247.932 175.639 253.047 175.639 253.047C176.781 268.884 178.184 272.461 180.7 271.223C182.606 270.314 180.863 252.218 180.863 252.218C184.127 262.967 186.603 264.679 186.603 264.679C191.99 268.461 188.659 258.014 187.91 255.945C183.924 244.952 183.801 241.142 183.801 241.142C188.781 251.02 192.535 250.654 192.535 250.654C197.393 249.103 188.29 235.116 182.957 228.415C180.235 225.001 176.725 220.43 175.706 217.715C174.046 213.117 172.793 198.335 172.793 198.335C172.29 180.891 167.978 173.315 167.978 173.315C160.604 161.513 159.217 139.498 159.217 139.498L158.891 102.33C156.306 76.9771 137.624 76.7939 137.624 76.7939C118.742 73.9831 116.114 67.8834 116.114 67.8834C112.115 62.1277 114.401 51.0946 114.401 51.0946C117.719 48.3956 118.999 41.2301 118.999 41.2301C124.509 37.005 124.238 30.8226 121.694 30.8896C119.651 30.9432 120.114 29.2518 120.114 29.2518C123.559 1.42103 98.852 0 98.852 0L95.0804 0C95.0804 0 70.3621 1.42103 73.8029 29.2451C73.8029 29.2451 74.2654 30.9387 72.2054 30.8829C69.6672 30.8159 69.4304 36.9982 74.9201 41.2234C74.9201 41.2234 76.1981 48.3866 79.5183 51.0879C79.5183 51.0879 81.8041 62.121 77.8046 67.8767C77.8046 67.8767 75.186 73.9764 56.2947 76.7872C56.2947 76.7872 37.5822 76.9704 35.0373 102.323L34.6843 139.491C34.6843 139.491 33.3236 161.506 25.9213 173.308C25.9213 173.308 21.6291 180.887 21.1331 198.328C21.1331 198.328 19.8752 213.11 18.2218 217.708C17.2141 220.41 13.7062 224.981 10.9625 228.409C5.58219 235.096 -3.46013 249.054 1.37718 250.647C1.37718 250.647 5.15096 251.013 10.1112 241.135C10.1112 241.135 10.0084 244.918 6.02906 255.938C5.24704 257.98 1.92013 268.428 7.30933 264.672C7.30933 264.672 9.80507 262.958 13.0493 252.211C13.0493 252.211 11.3088 270.307 13.2459 271.216C15.7774 272.456 17.1582 268.877 18.3 253.04C18.3 253.04 19.4708 247.926 20.0137 267.447C20.0405 268.455 21.5174 273.475 23.5797 269.19C25.3202 265.597 24.5382 256.088 24.5382 252.89C24.5382 252.89 26.7703 265.228 28.8572 265.228C28.8572 265.228 31.3127 268.113 30.305 252.781C30.1419 250.276 31.02 245.135 31.1295 243.638L31.3664 237.759C31.3664 237.759 30.7541 231.025 30.7541 228.221C30.7541 227.526 33.1628 218.356 39.5149 208.677C39.5149 208.677 52.7265 185.244 51.8752 169.93C51.8752 169.93 51.692 155.317 57.012 147.039C57.012 147.039 60.788 188.432 58.2297 200.053C58.2297 200.053 46.3453 228.603 48.9661 249.896C50.8966 265.747 54.619 299.581 58.4084 312.942C60.388 319.855 59.2172 337.294 60.8036 341.649C61.5186 343.541 61.1432 345.284 59.606 349.57C54.2726 364.562 54.9519 375.121 68.3668 414.901C68.3668 414.901 72.4958 423.716 70.409 439.553C70.409 439.553 61.8381 457.186 67.3278 457.539C67.3278 457.539 67.7568 458.708 69.6136 457.783C69.6136 457.783 72.5785 460.844 75.7825 459.184C75.7825 459.184 78.7497 461.552 81.2857 459.443C81.2857 459.443 83.3189 461.782 86.2839 459.892C86.2839 459.892 90.1761 462.517 92.4886 459.673C92.4886 459.673 96.5975 460.584 89.2823 442.053C89.2823 442.053 86.4805 422.406 84.9366 418.543C81.9917 411.226 84.0719 391.171 84.6997 386.872C85.7119 379.686 85.1689 367.444 83.3189 357.973C81.9649 351.185 85.6314 338.369 86.9855 330.491C89.7672 313.905 95.2189 271.565 94.5375 263.552L96.7897 264.343C98.4029 264.348 99.4217 263.559 99.4217 263.559L99.4217 263.559L99.4217 263.559Z" fill="#CDCDCD" fill-opacity="1.000000" transform="matrix(1 0 0 1 140.277 16.8522)"/><path d="M99.4217 263.559C98.7425 271.558 104.172 313.896 106.974 330.497C108.308 338.362 111.965 351.176 110.649 357.98C108.77 367.462 108.227 379.733 109.262 386.878C109.914 391.218 111.968 411.23 109.029 418.55C107.492 422.389 104.675 442.06 104.675 442.06C97.3349 460.591 101.477 459.68 101.477 459.68C103.75 462.468 107.642 459.899 107.642 459.899C110.607 461.789 112.66 459.449 112.66 459.449C115.205 461.556 118.172 459.19 118.172 459.19C121.37 460.85 124.335 457.789 124.335 457.789C126.171 458.714 126.62 457.546 126.62 457.546C132.13 457.193 123.546 439.559 123.546 439.559C121.49 423.723 125.586 414.908 125.586 414.908C139.001 375.126 139.682 364.569 134.32 349.576C132.809 345.248 132.427 343.535 133.122 341.656C134.729 337.319 133.558 319.875 135.517 312.949C139.298 299.59 143.027 265.711 144.971 249.903C147.583 228.61 135.718 200.06 135.718 200.06C133.12 188.441 136.929 147.046 136.929 147.046C142.249 155.324 142.046 169.936 142.046 169.936C141.201 185.262 154.426 208.684 154.426 208.684C160.781 218.363 163.187 227.546 163.187 228.228C163.187 231.016 162.577 237.766 162.577 237.766L162.821 243.645C162.93 245.142 163.773 250.296 163.636 252.787C162.644 268.119 165.08 265.235 165.08 265.235C167.135 265.235 169.394 252.897 169.394 252.897C169.394 256.079 168.617 265.604 170.333 269.196C172.386 273.482 173.896 268.461 173.923 267.454C174.466 247.932 175.639 253.047 175.639 253.047C176.781 268.884 178.184 272.461 180.7 271.223C182.606 270.314 180.863 252.218 180.863 252.218C184.127 262.967 186.603 264.679 186.603 264.679C191.99 268.461 188.659 258.014 187.91 255.945C183.924 244.952 183.801 241.142 183.801 241.142C188.781 251.02 192.535 250.654 192.535 250.654C197.393 249.103 188.29 235.116 182.957 228.415C180.235 225.001 176.725 220.43 175.706 217.715C174.046 213.117 172.793 198.335 172.793 198.335C172.29 180.891 167.978 173.315 167.978 173.315C160.604 161.513 159.217 139.498 159.217 139.498L158.891 102.33C156.306 76.9771 137.624 76.7939 137.624 76.7939C118.742 73.9831 116.114 67.8834 116.114 67.8834C112.115 62.1277 114.401 51.0946 114.401 51.0946C117.719 48.3956 118.999 41.2301 118.999 41.2301C124.509 37.005 124.238 30.8226 121.694 30.8896C119.651 30.9432 120.114 29.2518 120.114 29.2518C123.559 1.42103 98.852 0 98.852 0L95.0804 0C95.0804 0 70.3621 1.42103 73.8029 29.2451C73.8029 29.2451 74.2654 30.9387 72.2054 30.8829C69.6672 30.8159 69.4304 36.9982 74.9201 41.2234C74.9201 41.2234 76.1981 48.3866 79.5183 51.0879C79.5183 51.0879 81.8041 62.121 77.8046 67.8767C77.8046 67.8767 75.186 73.9764 56.2947 76.7872C56.2947 76.7872 37.5822 76.9704 35.0373 102.323L34.6843 139.491C34.6843 139.491 33.3236 161.506 25.9213 173.308C25.9213 173.308 21.6291 180.887 21.1331 198.328C21.1331 198.328 19.8752 213.11 18.2218 217.708C17.2141 220.41 13.7062 224.981 10.9625 228.409C5.58219 235.096 -3.46013 249.054 1.37718 250.647C1.37718 250.647 5.15096 251.013 10.1112 241.135C10.1112 241.135 10.0084 244.918 6.02906 255.938C5.24704 257.98 1.92013 268.428 7.30933 264.672C7.30933 264.672 9.80507 262.958 13.0493 252.211C13.0493 252.211 11.3088 270.307 13.2459 271.216C15.7774 272.456 17.1582 268.877 18.3 253.04C18.3 253.04 19.4708 247.926 20.0137 267.447C20.0405 268.455 21.5174 273.475 23.5797 269.19C25.3202 265.597 24.5382 256.088 24.5382 252.89C24.5382 252.89 26.7703 265.228 28.8572 265.228C28.8572 265.228 31.3127 268.113 30.305 252.781C30.1419 250.276 31.02 245.135 31.1295 243.638L31.3664 237.759C31.3664 237.759 30.7541 231.025 30.7541 228.221C30.7541 227.526 33.1628 218.356 39.5149 208.677C39.5149 208.677 52.7265 185.244 51.8752 169.93C51.8752 169.93 51.692 155.317 57.012 147.039C57.012 147.039 60.788 188.432 58.2297 200.053C58.2297 200.053 46.3453 228.603 48.9661 249.896C50.8966 265.747 54.619 299.581 58.4084 312.942C60.388 319.855 59.2172 337.294 60.8036 341.649C61.5186 343.541 61.1432 345.284 59.606 349.57C54.2726 364.562 54.9519 375.121 68.3668 414.901C68.3668 414.901 72.4958 423.716 70.409 439.553C70.409 439.553 61.8381 457.186 67.3278 457.539C67.3278 457.539 67.7568 458.708 69.6136 457.783C69.6136 457.783 72.5785 460.844 75.7825 459.184C75.7825 459.184 78.7497 461.552 81.2857 459.443C81.2857 459.443 83.3189 461.782 86.2839 459.892C86.2839 459.892 90.1761 462.517 92.4886 459.673C92.4886 459.673 96.5975 460.584 89.2823 442.053C89.2823 442.053 86.4805 422.406 84.9366 418.543C81.9917 411.226 84.0719 391.171 84.6997 386.872C85.7119 379.686 85.1689 367.444 83.3189 357.973C81.9649 351.185 85.6314 338.369 86.9855 330.491C89.7672 313.905 95.2189 271.565 94.5375 263.552L96.7897 264.343C98.4029 264.348 99.4217 263.559 99.4217 263.559L99.4217 263.559L99.4217 263.559Z" fill="#CDCDCD" fill-opacity="1.000000" transform="matrix(1 0 0 1 140.277 16.8522)"/><path d="M12 6C12 9.31371 9.31371 12 6 12C2.68629 12 0 9.31371 0 6C0 2.68629 2.68629 0 6 0C9.31371 0 12 2.68629 12 6L12 6Z" fill="#347CD4" fill-opacity="1.000000" transform="matrix(1 0 0 1 232.237 27.5088)"/><path d="M12 6C12 9.31371 9.31371 12 6 12C2.68629 12 0 9.31371 0 6C0 2.68629 2.68629 0 6 0C9.31371 0 12 2.68629 12 6L12 6Z" fill="none" stroke="#347CD4" stroke-opacity="1.000000" stroke-width="1" stroke-dasharray="0 0" transform="matrix(1 0 0 1 232.237 27.5088)"/><path d="M52.5 -11.0566L41.0946 -14.7862L43.5676 -3.04379L52.5 -11.0566Z" transform="matrix(1 0 0 1 244.237 33.5088)" fill="#000000" fill-opacity="1.000000" stroke="none"/><path d="M0 0L46.6288 -9.8201" fill="none" stroke="#000000" stroke-opacity="1.000000" stroke-width="2" stroke-dasharray="0 0" transform="matrix(1 0 0 1 244.237 33.5088)"/><path d="M1.40137 16L2.70361 16L2.70361 11.1567L7.48877 11.1567L7.48877 16L8.77734 16L8.77734 5.73926L7.48877 5.73926L7.48877 10.0356L2.70361 10.0356L2.70361 5.73926L1.40137 5.73926L1.40137 16ZM14.5464 16.1812C15.5821 16.1812 16.3956 15.8325 17.0655 15.3984L16.6041 14.5576C16.0435 14.937 15.442 15.1592 14.7003 15.1592C13.2579 15.1592 12.2632 14.1235 12.1812 12.5L17.3047 12.5C17.3321 12.3188 17.3594 12.0522 17.3594 11.772C17.3594 9.60156 16.2691 8.20361 14.3345 8.20361C12.5709 8.20361 10.9063 9.7417 10.9063 12.2061C10.9063 14.7114 12.5298 16.1812 14.5464 16.1812ZM12.1675 11.5908C12.3214 10.0903 13.2715 9.22559 14.3516 9.22559C15.5411 9.22559 16.2383 10.0493 16.2383 11.5908L12.1675 11.5908ZM20.7625 16.1812C21.699 16.1812 22.5535 15.6924 23.2815 15.0908L23.3226 15.0908L23.4353 16L24.4847 16L24.4847 11.3242C24.4847 9.44775 23.702 8.20361 21.8528 8.20361C20.636 8.20361 19.5594 8.74707 18.8587 9.19482L19.3611 10.0767C19.9627 9.67334 20.7625 9.2666 21.6443 9.2666C22.8885 9.2666 23.2132 10.2031 23.2132 11.1841C19.9764 11.5464 18.5374 12.3735 18.5374 14.0244C18.5374 15.3984 19.4876 16.1812 20.7625 16.1812ZM21.1248 15.1592C20.3694 15.1592 19.7815 14.8105 19.7815 13.9424C19.7815 12.9614 20.6497 12.3325 23.2132 12.0249L23.2132 14.1509C22.4715 14.8105 21.8665 15.1592 21.1248 15.1592ZM29.4993 16.1812C30.4085 16.1812 31.2048 15.6924 31.8064 15.1045L31.8372 15.1045L31.9602 16L32.9993 16L32.9993 4.85742L31.7244 4.85742L31.7244 7.7832L31.7927 9.09912C31.1228 8.53857 30.5486 8.20361 29.6531 8.20361C27.9168 8.20361 26.3616 9.7417 26.3616 12.2061C26.3616 14.7388 27.5955 16.1812 29.4993 16.1812ZM29.7796 15.1182C28.4329 15.1182 27.6775 14.0244 27.6775 12.1924C27.6775 10.4561 28.6448 9.28027 29.8753 9.28027C30.5076 9.28027 31.0784 9.50244 31.7244 10.0767L31.7244 14.0688C31.0955 14.7695 30.4768 15.1182 29.7796 15.1182Z" fill="#19191A" fill-opacity="1.000000" transform="matrix(1 0 0 1 297.973 9.03709)"/><path d="M12 6C12 9.31371 9.31371 12 6 12C2.68629 12 0 9.31371 0 6C0 2.68629 2.68629 0 6 0C9.31371 0 12 2.68629 12 6L12 6Z" fill="#347CD4" fill-opacity="1.000000" transform="matrix(1 0 0 1 232.001 128.509)"/><path d="M12 6C12 9.31371 9.31371 12 6 12C2.68629 12 0 9.31371 0 6C0 2.68629 2.68629 0 6 0C9.31371 0 12 2.68629 12 6L12 6Z" fill="none" stroke="#347CD4" stroke-opacity="1.000000" stroke-width="1" stroke-dasharray="0 0" transform="matrix(1 0 0 1 232.001 128.509)"/><path d="M12 6C12 9.31371 9.31371 12 6 12C2.68629 12 0 9.31371 0 6C0 2.68629 2.68629 0 6 0C9.31371 0 12 2.68629 12 6L12 6Z" fill="#347CD4" fill-opacity="1.000000" transform="matrix(1 0 0 1 179.737 146.509)"/><path d="M12 6C12 9.31371 9.31371 12 6 12C2.68629 12 0 9.31371 0 6C0 2.68629 2.68629 0 6 0C9.31371 0 12 2.68629 12 6L12 6Z" fill="none" stroke="#347CD4" stroke-opacity="1.000000" stroke-width="1" stroke-dasharray="0 0" transform="matrix(1 0 0 1 179.737 146.509)"/><path d="M12 6C12 9.31371 9.31371 12 6 12C2.68629 12 0 9.31371 0 6C0 2.68629 2.68629 0 6 0C9.31371 0 12 2.68629 12 6L12 6Z" fill="#347CD4" fill-opacity="1.000000" transform="matrix(1 0 0 1 285.973 147.795)"/><path d="M12 6C12 9.31371 9.31371 12 6 12C2.68629 12 0 9.31371 0 6C0 2.68629 2.68629 0 6 0C9.31371 0 12 2.68629 12 6L12 6Z" fill="none" stroke="#347CD4" stroke-opacity="1.000000" stroke-width="1" stroke-dasharray="0 0" transform="matrix(1 0 0 1 285.973 147.795)"/><path d="M12 6C12 9.31371 9.31371 12 6 12C2.68629 12 0 9.31371 0 6C0 2.68629 2.68629 0 6 0C9.31371 0 12 2.68629 12 6L12 6Z" fill="#347CD4" fill-opacity="1.000000" transform="matrix(1 0 0 1 162.737 221.509)"/><path d="M12 6C12 9.31371 9.31371 12 6 12C2.68629 12 0 9.31371 0 6C0 2.68629 2.68629 0 6 0C9.31371 0 12 2.68629 12 6L12 6Z" fill="none" stroke="#347CD4" stroke-opacity="1.000000" stroke-width="1" stroke-dasharray="0 0" transform="matrix(1 0 0 1 162.737 221.509)"/><path d="M12 6C12 9.31371 9.31371 12 6 12C2.68629 12 0 9.31371 0 6C0 2.68629 2.68629 0 6 0C9.31371 0 12 2.68629 12 6L12 6Z" fill="#347CD4" fill-opacity="1.000000" transform="matrix(1 0 0 1 301.737 220.223)"/><path d="M12 6C12 9.31371 9.31371 12 6 12C2.68629 12 0 9.31371 0 6C0 2.68629 2.68629 0 6 0C9.31371 0 12 2.68629 12 6L12 6Z" fill="none" stroke="#347CD4" stroke-opacity="1.000000" stroke-width="1" stroke-dasharray="0 0" transform="matrix(1 0 0 1 301.737 220.223)"/><path d="M12 6C12 9.31371 9.31371 12 6 12C2.68629 12 0 9.31371 0 6C0 2.68629 2.68629 0 6 0C9.31371 0 12 2.68629 12 6L12 6Z" fill="#347CD4" fill-opacity="1.000000" transform="matrix(1 0 0 1 206.737 376.937)"/><path d="M12 6C12 9.31371 9.31371 12 6 12C2.68629 12 0 9.31371 0 6C0 2.68629 2.68629 0 6 0C9.31371 0 12 2.68629 12 6L12 6Z" fill="none" stroke="#347CD4" stroke-opacity="1.000000" stroke-width="1" stroke-dasharray="0 0" transform="matrix(1 0 0 1 206.737 376.937)"/><path d="M12 6C12 9.31371 9.31371 12 6 12C2.68629 12 0 9.31371 0 6C0 2.68629 2.68629 0 6 0C9.31371 0 12 2.68629 12 6L12 6Z" fill="#347CD4" fill-opacity="1.000000" transform="matrix(1 0 0 1 258.737 376.223)"/><path d="M12 6C12 9.31371 9.31371 12 6 12C2.68629 12 0 9.31371 0 6C0 2.68629 2.68629 0 6 0C9.31371 0 12 2.68629 12 6L12 6Z" fill="none" stroke="#347CD4" stroke-opacity="1.000000" stroke-width="1" stroke-dasharray="0 0" transform="matrix(1 0 0 1 258.737 376.223)"/><path d="M12 6C12 9.31371 9.31371 12 6 12C2.68629 12 0 9.31371 0 6C0 2.68629 2.68629 0 6 0C9.31371 0 12 2.68629 12 6L12 6Z" fill="#347CD4" fill-opacity="1.000000" transform="matrix(1 0 0 1 204.737 276.509)"/><path d="M12 6C12 9.31371 9.31371 12 6 12C2.68629 12 0 9.31371 0 6C0 2.68629 2.68629 0 6 0C9.31371 0 12 2.68629 12 6L12 6Z" fill="none" stroke="#347CD4" stroke-opacity="1.000000" stroke-width="1" stroke-dasharray="0 0" transform="matrix(1 0 0 1 204.737 276.509)"/><path d="M86.7361 -41.0566L74.7762 -42.0336L79.9103 -31.1873L86.7361 -41.0566Z" transform="matrix(1 0 0 1 244.001 134.509)" fill="#000000" fill-opacity="1.000000" stroke="none"/><path d="M0 0L81.313 -38.4895" fill="none" stroke="#000000" stroke-opacity="1.000000" stroke-width="2" stroke-dasharray="0 0" transform="matrix(1 0 0 1 244.001 134.509)"/><path d="M-35.2278 -1.04904e-05L-24.8358 5.99999L-24.8358 -6.00001L-35.2278 -1.04904e-05Z" transform="matrix(1 0 0 1 179.737 152.509)" fill="#000000" fill-opacity="1.000000" stroke="none"/><path d="M0 0L-29.2278 -1.04904e-05" fill="none" stroke="#000000" stroke-opacity="1.000000" stroke-width="2" stroke-dasharray="0 0" transform="matrix(1 0 0 1 179.737 152.509)"/><path d="M35.001 1.14441e-05L24.609 -5.99999L24.609 6.00001L35.001 1.14441e-05Z" transform="matrix(1 0 0 1 297.973 153.795)" fill="#000000" fill-opacity="1.000000" stroke="none"/><path d="M0 0L29.001 1.14441e-05" fill="none" stroke="#000000" stroke-opacity="1.000000" stroke-width="2" stroke-dasharray="0 0" transform="matrix(1 0 0 1 297.973 153.795)"/><path d="M-46.0977 7.62939e-06L-35.7057 6.00001L-35.7057 -5.99999L-46.0977 7.62939e-06Z" transform="matrix(1 0 0 1 162.737 227.509)" fill="#000000" fill-opacity="1.000000" stroke="none"/><path d="M0 0L-40.0977 7.62939e-06" fill="none" stroke="#000000" stroke-opacity="1.000000" stroke-width="2" stroke-dasharray="0 0" transform="matrix(1 0 0 1 162.737 227.509)"/><path d="M42.0197 0L31.6277 -6L31.6277 6L42.0197 0Z" transform="matrix(1 0 0 1 313.737 225.723)" fill="#000000" fill-opacity="1.000000" stroke="none"/><path d="M0 0L36.0197 0" fill="none" stroke="#000000" stroke-opacity="1.000000" stroke-width="2" stroke-dasharray="0 0" transform="matrix(1 0 0 1 313.737 225.723)"/><path d="M-62.3899 42.103L-50.4196 41.2634L-57.1321 31.3165L-62.3899 42.103Z" transform="matrix(1 0 0 1 206.127 286.349)" fill="#000000" fill-opacity="1.000000" stroke="none"/><path d="M0 0L-57.4164 38.7467" fill="none" stroke="#000000" stroke-opacity="1.000000" stroke-width="2" stroke-dasharray="0 0" transform="matrix(1 0 0 1 206.127 286.349)"/><path d="M-45.0009 0L-34.6089 6L-34.6089 -6L-45.0009 0Z" transform="matrix(1 0 0 1 206.737 382.437)" fill="#000000" fill-opacity="1.000000" stroke="none"/><path d="M0 0L-39.0009 0" fill="none" stroke="#000000" stroke-opacity="1.000000" stroke-width="2" stroke-dasharray="0 0" transform="matrix(1 0 0 1 206.737 382.437)"/><path d="M43.1663 3.05176e-05L32.7743 -5.99997L32.7743 6.00003L43.1663 3.05176e-05Z" transform="matrix(1 0 0 1 270.737 381.723)" fill="#000000" fill-opacity="1.000000" stroke="none"/><path d="M0 0L37.1663 3.05176e-05" fill="none" stroke="#000000" stroke-opacity="1.000000" stroke-width="2" stroke-dasharray="0 0" transform="matrix(1 0 0 1 270.737 381.723)"/><path d="M5.27734 16.1812C6.60693 16.1812 7.61523 15.6514 8.42871 14.7114L7.71436 13.9014C7.05469 14.6123 6.31299 15.0464 5.33545 15.0464C3.37354 15.0464 2.14307 13.4229 2.14307 10.8354C2.14307 8.27197 3.43164 6.67578 5.37646 6.67578C6.2583 6.67578 6.94531 7.08252 7.4751 7.65674L8.17578 6.81592C7.58789 6.15967 6.60693 5.54102 5.36279 5.54102C2.7583 5.54102 0.813477 7.55762 0.813477 10.8765C0.813477 14.209 2.73096 16.1812 5.27734 16.1812ZM10.2205 16L11.4954 16L11.4954 10.4834C12.2645 9.71436 12.7943 9.32129 13.5804 9.32129C14.5887 9.32129 15.0228 9.92285 15.0228 11.3516L15.0228 16L16.2943 16L16.2943 11.1841C16.2943 9.23926 15.5697 8.20361 13.9735 8.20361C12.9344 8.20361 12.1517 8.77441 11.451 9.4751L11.4954 7.90967L11.4954 4.85742L10.2205 4.85742L10.2205 16ZM21.7844 16.1812C22.8201 16.1812 23.6335 15.8325 24.3035 15.3984L23.842 14.5576C23.2815 14.937 22.6799 15.1592 21.9382 15.1592C20.4958 15.1592 19.5012 14.1235 19.4192 12.5L24.5427 12.5C24.5701 12.3188 24.5974 12.0522 24.5974 11.772C24.5974 9.60156 23.5071 8.20361 21.5725 8.20361C19.8088 8.20361 18.1443 9.7417 18.1443 12.2061C18.1443 14.7114 19.7678 16.1812 21.7844 16.1812ZM19.4055 11.5908C19.5593 10.0903 20.5095 9.22559 21.5896 9.22559C22.7791 9.22559 23.4763 10.0493 23.4763 11.5908L19.4055 11.5908ZM28.4603 16.1812C30.2547 16.1812 31.2323 15.1592 31.2323 13.9287C31.2323 12.4863 30.0155 12.0386 28.9115 11.6182C28.057 11.2969 27.2298 11.0303 27.2298 10.3022C27.2298 9.71436 27.6639 9.2085 28.6175 9.2085C29.3011 9.2085 29.8343 9.48877 30.3675 9.88184L30.9828 9.05469C30.3812 8.59326 29.5541 8.20361 28.6175 8.20361C26.9632 8.20361 25.9994 9.15381 25.9994 10.3569C25.9994 11.6455 27.2025 12.165 28.2655 12.5547C29.1063 12.8794 30.0018 13.228 30.0018 13.9971C30.0018 14.6567 29.513 15.1865 28.5047 15.1865C27.5956 15.1865 26.9086 14.8242 26.2489 14.291L25.62 15.1318C26.348 15.7334 27.3837 16.1812 28.4603 16.1812ZM35.111 16.1812C35.5724 16.1812 36.0783 16.041 36.5124 15.9009L36.2595 14.9507C36.0065 15.0464 35.6579 15.1455 35.3913 15.1455C34.5095 15.1455 34.2155 14.6123 34.2155 13.6758L34.2155 9.43408L36.2731 9.43408L36.2731 8.39844L34.2155 8.39844L34.2155 6.26904L33.1525 6.26904L32.9987 8.39844L31.8093 8.4668L31.8093 9.43408L32.9406 9.43408L32.9406 13.6484C32.9406 15.1729 33.4875 16.1812 35.111 16.1812Z" fill="#19191A" fill-opacity="1.000000" transform="matrix(1 0 0 1 332.974 81.1088)"/><path d="M2.70361 6.78857L4.42285 6.78857C6.03271 6.78857 6.91455 7.26367 6.91455 8.62061C6.91455 9.95361 6.03271 10.5962 4.42285 10.5962L2.70361 10.5962L2.70361 6.78857ZM8.51074 16L5.87891 11.5054C7.28027 11.1704 8.20312 10.2168 8.20312 8.62061C8.20312 6.48096 6.70605 5.73926 4.62109 5.73926L1.40137 5.73926L1.40137 16L2.70361 16L2.70361 11.6455L4.54932 11.6455L7.04102 16L8.51074 16ZM10.1785 16L11.4534 16L11.4534 8.39844L10.1785 8.39844L10.1785 16ZM10.8211 6.82959C11.327 6.82959 11.703 6.48096 11.703 6.00244C11.703 5.48633 11.327 5.17871 10.8211 5.17871C10.3187 5.17871 9.93929 5.48633 9.93929 6.00244C9.93929 6.48096 10.3187 6.82959 10.8211 6.82959ZM16.5886 19.5C18.9436 19.5 20.427 18.2832 20.427 16.8682C20.427 15.6206 19.5451 15.0635 17.7815 15.0635L16.2946 15.0635C15.2727 15.0635 14.9651 14.7251 14.9651 14.2363C14.9651 13.8159 15.177 13.563 15.4572 13.3271C15.7922 13.4946 16.2126 13.5903 16.5886 13.5903C18.1301 13.5903 19.3606 12.5684 19.3606 10.9448C19.3606 10.2886 19.1111 9.72803 18.7453 9.37939L20.3005 9.37939L20.3005 8.39844L17.655 8.39844C17.3884 8.29932 17.009 8.20361 16.5886 8.20361C15.0505 8.20361 13.7346 9.25293 13.7346 10.9175C13.7346 11.8267 14.2234 12.5547 14.7292 12.9614L14.7292 13.0195C14.3362 13.2964 13.8747 13.8022 13.8747 14.4312C13.8747 15.0327 14.1687 15.4395 14.5754 15.6787L14.5754 15.7334C13.8611 16.1948 13.4406 16.8135 13.4406 17.4561C13.4406 18.772 14.7292 19.5 16.5886 19.5ZM16.5886 12.7256C15.7068 12.7256 14.9651 12.0249 14.9651 10.9175C14.9651 9.79639 15.6931 9.14014 16.5886 9.14014C17.4875 9.14014 18.1985 9.81348 18.1985 10.9175C18.1985 12.0249 17.4568 12.7256 16.5886 12.7256ZM16.7732 18.6318C15.3855 18.6318 14.5583 18.0986 14.5583 17.2886C14.5583 16.8408 14.7976 16.3931 15.3445 16C15.6794 16.0854 16.0451 16.1265 16.3254 16.1265L17.6413 16.1265C18.6496 16.1265 19.1931 16.3623 19.1931 17.063C19.1931 17.8628 18.2292 18.6318 16.7732 18.6318ZM21.9105 16L23.1854 16L23.1854 10.4834C23.9545 9.71436 24.4842 9.32129 25.2704 9.32129C26.2787 9.32129 26.7128 9.92285 26.7128 11.3516L26.7128 16L27.9842 16L27.9842 11.1841C27.9842 9.23926 27.2596 8.20361 25.6634 8.20361C24.6244 8.20361 23.8417 8.77441 23.141 9.4751L23.1854 7.90967L23.1854 4.85742L21.9105 4.85742L21.9105 16ZM32.8011 16.1812C33.2625 16.1812 33.7683 16.041 34.2024 15.9009L33.9495 14.9507C33.6966 15.0464 33.3479 15.1455 33.0813 15.1455C32.1995 15.1455 31.9055 14.6123 31.9055 13.6758L31.9055 9.43408L33.9632 9.43408L33.9632 8.39844L31.9055 8.39844L31.9055 6.26904L30.8426 6.26904L30.6888 8.39844L29.4993 8.4668L29.4993 9.43408L30.6306 9.43408L30.6306 13.6484C30.6306 15.1729 31.1775 16.1812 32.8011 16.1812ZM40.2067 11.8267L40.7126 10.2612C41.0749 9.09912 41.4133 7.9917 41.7346 6.78857L41.7892 6.78857C42.1242 7.97803 42.4489 9.09912 42.8249 10.2612L43.3171 11.8267L40.2067 11.8267ZM44.6193 16L45.9899 16L42.5036 5.73926L41.0612 5.73926L37.5749 16L38.8908 16L39.8854 12.8623L43.6384 12.8623L44.6193 16ZM47.3204 16L48.5953 16L48.5953 11.1123C49.0978 9.81348 49.8805 9.3623 50.5128 9.3623C50.8204 9.3623 51.0016 9.39307 51.2545 9.48877L51.4903 8.37109C51.2545 8.24463 51.0152 8.20361 50.6803 8.20361C49.8258 8.20361 49.0567 8.81885 48.5235 9.78271L48.4825 9.78271L48.3697 8.39844L47.3204 8.39844L47.3204 16ZM52.7524 16L54.0273 16L54.0273 10.4834C54.7246 9.70068 55.3706 9.32129 55.9448 9.32129C56.9086 9.32129 57.3564 9.92285 57.3564 11.3516L57.3564 16L58.6313 16L58.6313 10.4834C59.3457 9.70068 59.9609 9.32129 60.5488 9.32129C61.5161 9.32129 61.9638 9.92285 61.9638 11.3516L61.9638 16L63.2387 16L63.2387 11.1841C63.2387 9.23926 62.497 8.20361 60.9282 8.20361C60.0053 8.20361 59.2055 8.80518 58.4228 9.65967C58.1152 8.76074 57.4829 8.20361 56.3208 8.20361C55.4116 8.20361 54.6152 8.77441 53.9555 9.50244L53.9145 9.50244L53.8017 8.39844L52.7524 8.39844L52.7524 16Z" fill="#19191A" fill-opacity="1.000000" transform="matrix(1 0 0 1 78.0584 142.295)"/><path d="M1.40137 16L7.18115 16L7.18115 14.8926L2.70361 14.8926L2.70361 5.73926L1.40137 5.73926L1.40137 16ZM11.7605 16.1812C12.7961 16.1812 13.6096 15.8325 14.2795 15.3984L13.8181 14.5576C13.2575 14.937 12.656 15.1592 11.9143 15.1592C10.4719 15.1592 9.47725 14.1235 9.39522 12.5L14.5188 12.5C14.5461 12.3188 14.5734 12.0522 14.5734 11.772C14.5734 9.60156 13.4831 8.20361 11.5485 8.20361C9.78487 8.20361 8.12032 9.7417 8.12032 12.2061C8.12032 14.7114 9.74385 16.1812 11.7605 16.1812ZM9.38155 11.5908C9.53535 10.0903 10.4855 9.22559 11.5656 9.22559C12.7551 9.22559 13.4523 10.0493 13.4523 11.5908L9.38155 11.5908ZM20.1453 4.92578C19.783 4.77197 19.3353 4.67285 18.8704 4.67285C17.3597 4.67285 16.659 5.64014 16.659 7.18164L16.659 8.39844L15.6234 8.4668L15.6234 9.43408L16.659 9.43408L16.659 16L17.9339 16L17.9339 9.43408L19.5438 9.43408L19.5438 8.39844L17.9339 8.39844L17.9339 7.19531C17.9339 6.21436 18.2825 5.69482 19.0106 5.69482C19.2772 5.69482 19.5848 5.7666 19.8651 5.89307L20.1453 4.92578ZM23.3931 16.1812C23.8545 16.1812 24.3604 16.041 24.7944 15.9009L24.5415 14.9507C24.2886 15.0464 23.9399 15.1455 23.6733 15.1455C22.7915 15.1455 22.4976 14.6123 22.4976 13.6758L22.4976 9.43408L24.5552 9.43408L24.5552 8.39844L22.4976 8.39844L22.4976 6.26904L21.4346 6.26904L21.2808 8.39844L20.0913 8.4668L20.0913 9.43408L21.2227 9.43408L21.2227 13.6484C21.2227 15.1729 21.7695 16.1812 23.3931 16.1812ZM30.7987 11.8267L31.3046 10.2612C31.6669 9.09912 32.0053 7.9917 32.3266 6.78857L32.3813 6.78857C32.7162 7.97803 33.0409 9.09912 33.4169 10.2612L33.9091 11.8267L30.7987 11.8267ZM35.2113 16L36.5819 16L33.0956 5.73926L31.6532 5.73926L28.1669 16L29.4828 16L30.4774 12.8623L34.2304 12.8623L35.2113 16ZM37.9124 16L39.1873 16L39.1873 11.1123C39.6898 9.81348 40.4725 9.3623 41.1048 9.3623C41.4124 9.3623 41.5936 9.39307 41.8465 9.48877L42.0824 8.37109C41.8465 8.24463 41.6073 8.20361 41.2723 8.20361C40.4178 8.20361 39.6488 8.81885 39.1156 9.78271L39.0745 9.78271L38.9617 8.39844L37.9124 8.39844L37.9124 16ZM43.3444 16L44.6193 16L44.6193 10.4834C45.3166 9.70068 45.9626 9.32129 46.5368 9.32129C47.5007 9.32129 47.9484 9.92285 47.9484 11.3516L47.9484 16L49.2233 16L49.2233 10.4834C49.9377 9.70068 50.5529 9.32129 51.1408 9.32129C52.1081 9.32129 52.5558 9.92285 52.5558 11.3516L52.5558 16L53.8307 16L53.8307 11.1841C53.8307 9.23926 53.089 8.20361 51.5202 8.20361C50.5973 8.20361 49.7975 8.80518 49.0148 9.65967C48.7072 8.76074 48.0749 8.20361 46.9128 8.20361C46.0036 8.20361 45.2072 8.77441 44.5475 9.50244L44.5065 9.50244L44.3937 8.39844L43.3444 8.39844L43.3444 16Z" fill="#19191A" fill-opacity="1.000000" transform="matrix(1 0 0 1 334.023 142.652)"/><path d="M2.70361 6.78857L4.42285 6.78857C6.03271 6.78857 6.91455 7.26367 6.91455 8.62061C6.91455 9.95361 6.03271 10.5962 4.42285 10.5962L2.70361 10.5962L2.70361 6.78857ZM8.51074 16L5.87891 11.5054C7.28027 11.1704 8.20312 10.2168 8.20312 8.62061C8.20312 6.48096 6.70605 5.73926 4.62109 5.73926L1.40137 5.73926L1.40137 16L2.70361 16L2.70361 11.6455L4.54932 11.6455L7.04102 16L8.51074 16ZM10.1785 16L11.4534 16L11.4534 8.39844L10.1785 8.39844L10.1785 16ZM10.8211 6.82959C11.327 6.82959 11.703 6.48096 11.703 6.00244C11.703 5.48633 11.327 5.17871 10.8211 5.17871C10.3187 5.17871 9.93929 5.48633 9.93929 6.00244C9.93929 6.48096 10.3187 6.82959 10.8211 6.82959ZM16.5886 19.5C18.9436 19.5 20.427 18.2832 20.427 16.8682C20.427 15.6206 19.5451 15.0635 17.7815 15.0635L16.2946 15.0635C15.2727 15.0635 14.9651 14.7251 14.9651 14.2363C14.9651 13.8159 15.177 13.563 15.4572 13.3271C15.7922 13.4946 16.2126 13.5903 16.5886 13.5903C18.1301 13.5903 19.3606 12.5684 19.3606 10.9448C19.3606 10.2886 19.1111 9.72803 18.7453 9.37939L20.3005 9.37939L20.3005 8.39844L17.655 8.39844C17.3884 8.29932 17.009 8.20361 16.5886 8.20361C15.0505 8.20361 13.7346 9.25293 13.7346 10.9175C13.7346 11.8267 14.2234 12.5547 14.7292 12.9614L14.7292 13.0195C14.3362 13.2964 13.8747 13.8022 13.8747 14.4312C13.8747 15.0327 14.1687 15.4395 14.5754 15.6787L14.5754 15.7334C13.8611 16.1948 13.4406 16.8135 13.4406 17.4561C13.4406 18.772 14.7292 19.5 16.5886 19.5ZM16.5886 12.7256C15.7068 12.7256 14.9651 12.0249 14.9651 10.9175C14.9651 9.79639 15.6931 9.14014 16.5886 9.14014C17.4875 9.14014 18.1985 9.81348 18.1985 10.9175C18.1985 12.0249 17.4568 12.7256 16.5886 12.7256ZM16.7732 18.6318C15.3855 18.6318 14.5583 18.0986 14.5583 17.2886C14.5583 16.8408 14.7976 16.3931 15.3445 16C15.6794 16.0854 16.0451 16.1265 16.3254 16.1265L17.6413 16.1265C18.6496 16.1265 19.1931 16.3623 19.1931 17.063C19.1931 17.8628 18.2292 18.6318 16.7732 18.6318ZM21.9105 16L23.1854 16L23.1854 10.4834C23.9545 9.71436 24.4842 9.32129 25.2704 9.32129C26.2787 9.32129 26.7128 9.92285 26.7128 11.3516L26.7128 16L27.9842 16L27.9842 11.1841C27.9842 9.23926 27.2596 8.20361 25.6634 8.20361C24.6244 8.20361 23.8417 8.77441 23.141 9.4751L23.1854 7.90967L23.1854 4.85742L21.9105 4.85742L21.9105 16ZM32.8011 16.1812C33.2625 16.1812 33.7683 16.041 34.2024 15.9009L33.9495 14.9507C33.6966 15.0464 33.3479 15.1455 33.0813 15.1455C32.1995 15.1455 31.9055 14.6123 31.9055 13.6758L31.9055 9.43408L33.9632 9.43408L33.9632 8.39844L31.9055 8.39844L31.9055 6.26904L30.8426 6.26904L30.6888 8.39844L29.4993 8.4668L29.4993 9.43408L30.6306 9.43408L30.6306 13.6484C30.6306 15.1729 31.1775 16.1812 32.8011 16.1812ZM40.0666 16L41.6081 16L43.1325 9.81348C43.3034 9 43.4846 8.2583 43.652 7.47559L43.7067 7.47559C43.8742 8.2583 44.0314 9 44.2126 9.81348L45.7643 16L47.3195 16L49.4489 5.73926L48.2014 5.73926L47.1247 11.3242C46.9265 12.4146 46.7316 13.522 46.5368 14.6431L46.465 14.6431C46.2292 13.522 45.9899 12.4146 45.737 11.3242L44.2946 5.73926L43.1188 5.73926L41.7072 11.3242C41.4543 12.4316 41.2014 13.5356 40.9655 14.6431L40.9074 14.6431C40.7126 13.5356 40.5007 12.4316 40.3058 11.3242L39.2292 5.73926L37.8825 5.73926L40.0666 16ZM51.1144 16L52.3893 16L52.3893 11.1123C52.8917 9.81348 53.6745 9.3623 54.3068 9.3623C54.6144 9.3623 54.7955 9.39307 55.0485 9.48877L55.2843 8.37109C55.0485 8.24463 54.8092 8.20361 54.4743 8.20361C53.6198 8.20361 52.8507 8.81885 52.3175 9.78271L52.2765 9.78271L52.1637 8.39844L51.1144 8.39844L51.1144 16ZM56.5464 16L57.8213 16L57.8213 8.39844L56.5464 8.39844L56.5464 16ZM57.1889 6.82959C57.6948 6.82959 58.0708 6.48096 58.0708 6.00244C58.0708 5.48633 57.6948 5.17871 57.1889 5.17871C56.6865 5.17871 56.3071 5.48633 56.3071 6.00244C56.3071 6.48096 56.6865 6.82959 57.1889 6.82959ZM62.3822 16.1812C64.1766 16.1812 65.1542 15.1592 65.1542 13.9287C65.1542 12.4863 63.9374 12.0386 62.8334 11.6182C61.9789 11.2969 61.1517 11.0303 61.1517 10.3022C61.1517 9.71436 61.5858 9.2085 62.5394 9.2085C63.223 9.2085 63.7562 9.48877 64.2894 9.88184L64.9047 9.05469C64.3031 8.59326 63.476 8.20361 62.5394 8.20361C60.8851 8.20361 59.9213 9.15381 59.9213 10.3569C59.9213 11.6455 61.1244 12.165 62.1874 12.5547C63.0282 12.8794 63.9237 13.228 63.9237 13.9971C63.9237 14.6567 63.4349 15.1865 62.4266 15.1865C61.5175 15.1865 60.8304 14.8242 60.1708 14.291L59.5419 15.1318C60.2699 15.7334 61.3055 16.1812 62.3822 16.1812ZM69.0329 16.1812C69.4943 16.1812 70.0002 16.041 70.4343 15.9009L70.1814 14.9507C69.9284 15.0464 69.5798 15.1455 69.3132 15.1455C68.4314 15.1455 68.1374 14.6123 68.1374 13.6758L68.1374 9.43408L70.195 9.43408L70.195 8.39844L68.1374 8.39844L68.1374 6.26904L67.0744 6.26904L66.9206 8.39844L65.7312 8.4668L65.7312 9.43408L66.8625 9.43408L66.8625 13.6484C66.8625 15.1729 67.4094 16.1812 69.0329 16.1812Z" fill="#19191A" fill-opacity="1.000000" transform="matrix(1 0 0 1 41.3084 216.366)"/><path d="M1.40137 16L7.18115 16L7.18115 14.8926L2.70361 14.8926L2.70361 5.73926L1.40137 5.73926L1.40137 16ZM11.7605 16.1812C12.7961 16.1812 13.6096 15.8325 14.2795 15.3984L13.8181 14.5576C13.2575 14.937 12.656 15.1592 11.9143 15.1592C10.4719 15.1592 9.47725 14.1235 9.39522 12.5L14.5188 12.5C14.5461 12.3188 14.5734 12.0522 14.5734 11.772C14.5734 9.60156 13.4831 8.20361 11.5485 8.20361C9.78487 8.20361 8.12032 9.7417 8.12032 12.2061C8.12032 14.7114 9.74385 16.1812 11.7605 16.1812ZM9.38155 11.5908C9.53535 10.0903 10.4855 9.22559 11.5656 9.22559C12.7551 9.22559 13.4523 10.0493 13.4523 11.5908L9.38155 11.5908ZM20.1453 4.92578C19.783 4.77197 19.3353 4.67285 18.8704 4.67285C17.3597 4.67285 16.659 5.64014 16.659 7.18164L16.659 8.39844L15.6234 8.4668L15.6234 9.43408L16.659 9.43408L16.659 16L17.9339 16L17.9339 9.43408L19.5438 9.43408L19.5438 8.39844L17.9339 8.39844L17.9339 7.19531C17.9339 6.21436 18.2825 5.69482 19.0106 5.69482C19.2772 5.69482 19.5848 5.7666 19.8651 5.89307L20.1453 4.92578ZM23.3931 16.1812C23.8545 16.1812 24.3604 16.041 24.7944 15.9009L24.5415 14.9507C24.2886 15.0464 23.9399 15.1455 23.6733 15.1455C22.7915 15.1455 22.4976 14.6123 22.4976 13.6758L22.4976 9.43408L24.5552 9.43408L24.5552 8.39844L22.4976 8.39844L22.4976 6.26904L21.4346 6.26904L21.2808 8.39844L20.0913 8.4668L20.0913 9.43408L21.2227 9.43408L21.2227 13.6484C21.2227 15.1729 21.7695 16.1812 23.3931 16.1812ZM30.6586 16L32.2001 16L33.7245 9.81348C33.8954 9 34.0766 8.2583 34.244 7.47559L34.2987 7.47559C34.4662 8.2583 34.6234 9 34.8046 9.81348L36.3564 16L37.9115 16L40.0409 5.73926L38.7934 5.73926L37.7167 11.3242C37.5185 12.4146 37.3236 13.522 37.1288 14.6431L37.057 14.6431C36.8212 13.522 36.5819 12.4146 36.329 11.3242L34.8866 5.73926L33.7108 5.73926L32.2992 11.3242C32.0463 12.4316 31.7934 13.5356 31.5575 14.6431L31.4994 14.6431C31.3046 13.5356 31.0927 12.4316 30.8979 11.3242L29.8212 5.73926L28.4745 5.73926L30.6586 16ZM41.7064 16L42.9813 16L42.9813 11.1123C43.4837 9.81348 44.2665 9.3623 44.8988 9.3623C45.2064 9.3623 45.3876 9.39307 45.6405 9.48877L45.8763 8.37109C45.6405 8.24463 45.4012 8.20361 45.0663 8.20361C44.2118 8.20361 43.4427 8.81885 42.9095 9.78271L42.8685 9.78271L42.7557 8.39844L41.7064 8.39844L41.7064 16ZM47.1384 16L48.4133 16L48.4133 8.39844L47.1384 8.39844L47.1384 16ZM47.781 6.82959C48.2868 6.82959 48.6628 6.48096 48.6628 6.00244C48.6628 5.48633 48.2868 5.17871 47.781 5.17871C47.2785 5.17871 46.8991 5.48633 46.8991 6.00244C46.8991 6.48096 47.2785 6.82959 47.781 6.82959ZM52.9742 16.1812C54.7686 16.1812 55.7462 15.1592 55.7462 13.9287C55.7462 12.4863 54.5294 12.0386 53.4254 11.6182C52.5709 11.2969 51.7437 11.0303 51.7437 10.3022C51.7437 9.71436 52.1778 9.2085 53.1314 9.2085C53.815 9.2085 54.3482 9.48877 54.8814 9.88184L55.4967 9.05469C54.8951 8.59326 54.068 8.20361 53.1314 8.20361C51.4771 8.20361 50.5133 9.15381 50.5133 10.3569C50.5133 11.6455 51.7164 12.165 52.7794 12.5547C53.6202 12.8794 54.5157 13.228 54.5157 13.9971C54.5157 14.6567 54.0269 15.1865 53.0186 15.1865C52.1095 15.1865 51.4225 14.8242 50.7628 14.291L50.1339 15.1318C50.8619 15.7334 51.8976 16.1812 52.9742 16.1812ZM59.6249 16.1812C60.0863 16.1812 60.5922 16.041 61.0263 15.9009L60.7734 14.9507C60.5204 15.0464 60.1718 15.1455 59.9052 15.1455C59.0234 15.1455 58.7294 14.6123 58.7294 13.6758L58.7294 9.43408L60.787 9.43408L60.787 8.39844L58.7294 8.39844L58.7294 6.26904L57.6664 6.26904L57.5126 8.39844L56.3232 8.4668L56.3232 9.43408L57.4545 9.43408L57.4545 13.6484C57.4545 15.1729 58.0014 16.1812 59.6249 16.1812Z" fill="#19191A" fill-opacity="1.000000" transform="matrix(1 0 0 1 357.308 214.652)"/><path d="M1.40137 16L2.70361 16L2.70361 11.9258L4.39551 11.9258C6.6377 11.9258 8.17578 10.9175 8.17578 8.74707C8.17578 6.5083 6.6377 5.73926 4.32715 5.73926L1.40137 5.73926L1.40137 16ZM2.70361 10.8765L2.70361 6.78857L4.17334 6.78857C5.97803 6.78857 6.88721 7.26367 6.88721 8.74707C6.88721 10.2168 6.03271 10.8765 4.22803 10.8765L2.70361 10.8765ZM12.7117 16.1812C14.5744 16.1812 16.239 14.7251 16.239 12.2061C16.239 9.67334 14.5744 8.20361 12.7117 8.20361C10.8489 8.20361 9.18431 9.67334 9.18431 12.2061C9.18431 14.7251 10.8489 16.1812 12.7117 16.1812ZM12.7117 15.1182C11.3957 15.1182 10.5139 13.9561 10.5139 12.2061C10.5139 10.4561 11.3957 9.2666 12.7117 9.2666C14.0276 9.2666 14.9231 10.4561 14.9231 12.2061C14.9231 13.9561 14.0276 15.1182 12.7117 15.1182ZM21.2366 16.1812C22.1492 16.1812 23.0174 15.8325 23.6873 15.2173L23.1404 14.3628C22.6653 14.7969 22.0501 15.1182 21.3494 15.1182C19.9515 15.1182 18.9979 13.9561 18.9979 12.2061C18.9979 10.4561 20.0062 9.2666 21.3768 9.2666C21.9954 9.2666 22.4568 9.54688 22.9046 9.95361L23.5609 9.09912C23.0174 8.62061 22.3304 8.20361 21.3358 8.20361C19.3909 8.20361 17.6683 9.67334 17.6683 12.2061C17.6683 14.7251 19.2234 16.1812 21.2366 16.1812ZM25.3685 16L26.6263 16L26.6263 13.9971L28.055 12.3325L30.2835 16L31.6678 16L28.783 11.4507L31.3328 8.39844L29.9178 8.39844L26.657 12.4146L26.6263 12.4146L26.6263 4.85742L25.3685 4.85742L25.3685 16ZM35.8824 16.1812C36.918 16.1812 37.7315 15.8325 38.4014 15.3984L37.94 14.5576C37.3794 14.937 36.7779 15.1592 36.0362 15.1592C34.5938 15.1592 33.5992 14.1235 33.5171 12.5L38.6407 12.5C38.668 12.3188 38.6953 12.0522 38.6953 11.772C38.6953 9.60156 37.605 8.20361 35.6704 8.20361C33.9068 8.20361 32.2422 9.7417 32.2422 12.2061C32.2422 14.7114 33.8658 16.1812 35.8824 16.1812ZM33.5034 11.5908C33.6573 10.0903 34.6075 9.22559 35.6875 9.22559C36.877 9.22559 37.5742 10.0493 37.5742 11.5908L33.5034 11.5908ZM42.811 16.1812C43.2724 16.1812 43.7783 16.041 44.2123 15.9009L43.9594 14.9507C43.7065 15.0464 43.3578 15.1455 43.0912 15.1455C42.2094 15.1455 41.9155 14.6123 41.9155 13.6758L41.9155 9.43408L43.9731 9.43408L43.9731 8.39844L41.9155 8.39844L41.9155 6.26904L40.8525 6.26904L40.6987 8.39844L39.5092 8.4668L39.5092 9.43408L40.6406 9.43408L40.6406 13.6484C40.6406 15.1729 41.1874 16.1812 42.811 16.1812Z" fill="#19191A" fill-opacity="1.000000" transform="matrix(1 0 0 1 97.4511 320.08)"/><path d="M2.70361 6.78857L4.42285 6.78857C6.03271 6.78857 6.91455 7.26367 6.91455 8.62061C6.91455 9.95361 6.03271 10.5962 4.42285 10.5962L2.70361 10.5962L2.70361 6.78857ZM8.51074 16L5.87891 11.5054C7.28027 11.1704 8.20312 10.2168 8.20312 8.62061C8.20312 6.48096 6.70605 5.73926 4.62109 5.73926L1.40137 5.73926L1.40137 16L2.70361 16L2.70361 11.6455L4.54932 11.6455L7.04102 16L8.51074 16ZM10.1785 16L11.4534 16L11.4534 8.39844L10.1785 8.39844L10.1785 16ZM10.8211 6.82959C11.327 6.82959 11.703 6.48096 11.703 6.00244C11.703 5.48633 11.327 5.17871 10.8211 5.17871C10.3187 5.17871 9.93929 5.48633 9.93929 6.00244C9.93929 6.48096 10.3187 6.82959 10.8211 6.82959ZM16.5886 19.5C18.9436 19.5 20.427 18.2832 20.427 16.8682C20.427 15.6206 19.5451 15.0635 17.7815 15.0635L16.2946 15.0635C15.2727 15.0635 14.9651 14.7251 14.9651 14.2363C14.9651 13.8159 15.177 13.563 15.4572 13.3271C15.7922 13.4946 16.2126 13.5903 16.5886 13.5903C18.1301 13.5903 19.3606 12.5684 19.3606 10.9448C19.3606 10.2886 19.1111 9.72803 18.7453 9.37939L20.3005 9.37939L20.3005 8.39844L17.655 8.39844C17.3884 8.29932 17.009 8.20361 16.5886 8.20361C15.0505 8.20361 13.7346 9.25293 13.7346 10.9175C13.7346 11.8267 14.2234 12.5547 14.7292 12.9614L14.7292 13.0195C14.3362 13.2964 13.8747 13.8022 13.8747 14.4312C13.8747 15.0327 14.1687 15.4395 14.5754 15.6787L14.5754 15.7334C13.8611 16.1948 13.4406 16.8135 13.4406 17.4561C13.4406 18.772 14.7292 19.5 16.5886 19.5ZM16.5886 12.7256C15.7068 12.7256 14.9651 12.0249 14.9651 10.9175C14.9651 9.79639 15.6931 9.14014 16.5886 9.14014C17.4875 9.14014 18.1985 9.81348 18.1985 10.9175C18.1985 12.0249 17.4568 12.7256 16.5886 12.7256ZM16.7732 18.6318C15.3855 18.6318 14.5583 18.0986 14.5583 17.2886C14.5583 16.8408 14.7976 16.3931 15.3445 16C15.6794 16.0854 16.0451 16.1265 16.3254 16.1265L17.6413 16.1265C18.6496 16.1265 19.1931 16.3623 19.1931 17.063C19.1931 17.8628 18.2292 18.6318 16.7732 18.6318ZM21.9105 16L23.1854 16L23.1854 10.4834C23.9545 9.71436 24.4842 9.32129 25.2704 9.32129C26.2787 9.32129 26.7128 9.92285 26.7128 11.3516L26.7128 16L27.9842 16L27.9842 11.1841C27.9842 9.23926 27.2596 8.20361 25.6634 8.20361C24.6244 8.20361 23.8417 8.77441 23.141 9.4751L23.1854 7.90967L23.1854 4.85742L21.9105 4.85742L21.9105 16ZM32.8011 16.1812C33.2625 16.1812 33.7683 16.041 34.2024 15.9009L33.9495 14.9507C33.6966 15.0464 33.3479 15.1455 33.0813 15.1455C32.1995 15.1455 31.9055 14.6123 31.9055 13.6758L31.9055 9.43408L33.9632 9.43408L33.9632 8.39844L31.9055 8.39844L31.9055 6.26904L30.8426 6.26904L30.6888 8.39844L29.4993 8.4668L29.4993 9.43408L30.6306 9.43408L30.6306 13.6484C30.6306 15.1729 31.1775 16.1812 32.8011 16.1812ZM41.0749 16L42.3771 16L42.3771 6.82959L45.4875 6.82959L45.4875 5.73926L37.968 5.73926L37.968 6.82959L41.0749 6.82959L41.0749 16ZM47.2084 16L48.4833 16L48.4833 8.39844L47.2084 8.39844L47.2084 16ZM47.851 6.82959C48.3569 6.82959 48.7328 6.48096 48.7328 6.00244C48.7328 5.48633 48.3569 5.17871 47.851 5.17871C47.3486 5.17871 46.9692 5.48633 46.9692 6.00244C46.9692 6.48096 47.3486 6.82959 47.851 6.82959ZM54.4046 16.1812C56.1546 16.1812 57.7064 14.6841 57.7064 12.0659C57.7064 9.7417 56.6434 8.20361 54.6712 8.20361C53.8304 8.20361 52.9759 8.67871 52.2889 9.28027L52.3333 7.90967L52.3333 4.85742L51.0584 4.85742L51.0584 16L52.0804 16L52.1932 15.2173L52.2342 15.2173C52.9075 15.8325 53.7039 16.1812 54.4046 16.1812ZM54.1927 15.1182C53.6902 15.1182 53.0032 14.9097 52.3333 14.3184L52.3333 10.3296C53.0613 9.64258 53.7313 9.28027 54.3773 9.28027C55.8162 9.28027 56.3768 10.415 56.3768 12.0933C56.3768 13.9834 55.4539 15.1182 54.1927 15.1182ZM59.7104 16L60.9853 16L60.9853 8.39844L59.7104 8.39844L59.7104 16ZM60.353 6.82959C60.8588 6.82959 61.2348 6.48096 61.2348 6.00244C61.2348 5.48633 60.8588 5.17871 60.353 5.17871C59.8505 5.17871 59.4711 5.48633 59.4711 6.00244C59.4711 6.48096 59.8505 6.82959 60.353 6.82959ZM65.3104 16.1812C66.2469 16.1812 67.1014 15.6924 67.8294 15.0908L67.8704 15.0908L67.9832 16L69.0325 16L69.0325 11.3242C69.0325 9.44775 68.2498 8.20361 66.4007 8.20361C65.1839 8.20361 64.1072 8.74707 63.4066 9.19482L63.909 10.0767C64.5106 9.67334 65.3104 9.2666 66.1922 9.2666C67.4363 9.2666 67.761 10.2031 67.761 11.1841C64.5242 11.5464 63.0853 12.3735 63.0853 14.0244C63.0853 15.3984 64.0355 16.1812 65.3104 16.1812ZM65.6727 15.1592C64.9173 15.1592 64.3294 14.8105 64.3294 13.9424C64.3294 12.9614 65.1976 12.3325 67.761 12.0249L67.761 14.1509C67.0193 14.8105 66.4144 15.1592 65.6727 15.1592Z" fill="#19191A" fill-opacity="1.000000" transform="matrix(1 0 0 1 89.3082 371.366)"/><path d="M1.40137 16L7.18115 16L7.18115 14.8926L2.70361 14.8926L2.70361 5.73926L1.40137 5.73926L1.40137 16ZM11.7605 16.1812C12.7961 16.1812 13.6096 15.8325 14.2795 15.3984L13.8181 14.5576C13.2575 14.937 12.656 15.1592 11.9143 15.1592C10.4719 15.1592 9.47725 14.1235 9.39522 12.5L14.5188 12.5C14.5461 12.3188 14.5734 12.0522 14.5734 11.772C14.5734 9.60156 13.4831 8.20361 11.5485 8.20361C9.78487 8.20361 8.12032 9.7417 8.12032 12.2061C8.12032 14.7114 9.74385 16.1812 11.7605 16.1812ZM9.38155 11.5908C9.53535 10.0903 10.4855 9.22559 11.5656 9.22559C12.7551 9.22559 13.4523 10.0493 13.4523 11.5908L9.38155 11.5908ZM20.1453 4.92578C19.783 4.77197 19.3353 4.67285 18.8704 4.67285C17.3597 4.67285 16.659 5.64014 16.659 7.18164L16.659 8.39844L15.6234 8.4668L15.6234 9.43408L16.659 9.43408L16.659 16L17.9339 16L17.9339 9.43408L19.5438 9.43408L19.5438 8.39844L17.9339 8.39844L17.9339 7.19531C17.9339 6.21436 18.2825 5.69482 19.0106 5.69482C19.2772 5.69482 19.5848 5.7666 19.8651 5.89307L20.1453 4.92578ZM23.3931 16.1812C23.8545 16.1812 24.3604 16.041 24.7944 15.9009L24.5415 14.9507C24.2886 15.0464 23.9399 15.1455 23.6733 15.1455C22.7915 15.1455 22.4976 14.6123 22.4976 13.6758L22.4976 9.43408L24.5552 9.43408L24.5552 8.39844L22.4976 8.39844L22.4976 6.26904L21.4346 6.26904L21.2808 8.39844L20.0913 8.4668L20.0913 9.43408L21.2227 9.43408L21.2227 13.6484C21.2227 15.1729 21.7695 16.1812 23.3931 16.1812ZM31.6669 16L32.9691 16L32.9691 6.82959L36.0795 6.82959L36.0795 5.73926L28.56 5.73926L28.56 6.82959L31.6669 6.82959L31.6669 16ZM37.8004 16L39.0753 16L39.0753 8.39844L37.8004 8.39844L37.8004 16ZM38.443 6.82959C38.9489 6.82959 39.3248 6.48096 39.3248 6.00244C39.3248 5.48633 38.9489 5.17871 38.443 5.17871C37.9406 5.17871 37.5612 5.48633 37.5612 6.00244C37.5612 6.48096 37.9406 6.82959 38.443 6.82959ZM44.9966 16.1812C46.7466 16.1812 48.2984 14.6841 48.2984 12.0659C48.2984 9.7417 47.2354 8.20361 45.2632 8.20361C44.4224 8.20361 43.5679 8.67871 42.8809 9.28027L42.9253 7.90967L42.9253 4.85742L41.6504 4.85742L41.6504 16L42.6724 16L42.7852 15.2173L42.8262 15.2173C43.4995 15.8325 44.2959 16.1812 44.9966 16.1812ZM44.7847 15.1182C44.2823 15.1182 43.5952 14.9097 42.9253 14.3184L42.9253 10.3296C43.6534 9.64258 44.3233 9.28027 44.9693 9.28027C46.4082 9.28027 46.9688 10.415 46.9688 12.0933C46.9688 13.9834 46.0459 15.1182 44.7847 15.1182ZM50.3024 16L51.5773 16L51.5773 8.39844L50.3024 8.39844L50.3024 16ZM50.945 6.82959C51.4508 6.82959 51.8268 6.48096 51.8268 6.00244C51.8268 5.48633 51.4508 5.17871 50.945 5.17871C50.4425 5.17871 50.0631 5.48633 50.0631 6.00244C50.0631 6.48096 50.4425 6.82959 50.945 6.82959ZM55.9024 16.1812C56.8389 16.1812 57.6934 15.6924 58.4214 15.0908L58.4624 15.0908L58.5752 16L59.6245 16L59.6245 11.3242C59.6245 9.44775 58.8418 8.20361 56.9927 8.20361C55.7759 8.20361 54.6992 8.74707 53.9986 9.19482L54.501 10.0767C55.1026 9.67334 55.9024 9.2666 56.7842 9.2666C58.0284 9.2666 58.3531 10.2031 58.3531 11.1841C55.1162 11.5464 53.6773 12.3735 53.6773 14.0244C53.6773 15.3984 54.6275 16.1812 55.9024 16.1812ZM56.2647 15.1592C55.5093 15.1592 54.9214 14.8105 54.9214 13.9424C54.9214 12.9614 55.7896 12.3325 58.3531 12.0249L58.3531 14.1509C57.6114 14.8105 57.0064 15.1592 56.2647 15.1592Z" fill="#19191A" fill-opacity="1.000000" transform="matrix(1 0 0 1 314.594 370.652)"/><path d="M12 6C12 9.31371 9.31371 12 6 12C2.68629 12 0 9.31371 0 6C0 2.68629 2.68629 0 6 0C9.31371 0 12 2.68629 12 6L12 6Z" fill="#D64A43" fill-opacity="1.000000" transform="matrix(1 0 0 1 250.737 453.937)"/><path d="M12 6C12 9.31371 9.31371 12 6 12C2.68629 12 0 9.31371 0 6C0 2.68629 2.68629 0 6 0C9.31371 0 12 2.68629 12 6L12 6Z" fill="none" stroke="#D64A43" stroke-opacity="1.000000" stroke-width="1" stroke-dasharray="0 0" transform="matrix(1 0 0 1 250.737 453.937)"/><path d="M12 6C12 9.31371 9.31371 12 6 12C2.68629 12 0 9.31371 0 6C0 2.68629 2.68629 0 6 0C9.31371 0 12 2.68629 12 6L12 6Z" fill="#D64A43" fill-opacity="1.000000" transform="matrix(1 0 0 1 212.737 453.509)"/><path d="M12 6C12 9.31371 9.31371 12 6 12C2.68629 12 0 9.31371 0 6C0 2.68629 2.68629 0 6 0C9.31371 0 12 2.68629 12 6L12 6Z" fill="none" stroke="#D64A43" stroke-opacity="1.000000" stroke-width="1" stroke-dasharray="0 0" transform="matrix(1 0 0 1 212.737 453.509)"/><path d="M-51.0107 -3.05176e-05L-40.6187 5.99997L-40.6187 -6.00003L-51.0107 -3.05176e-05Z" transform="matrix(1 0 0 1 212.737 459.509)" fill="#000000" fill-opacity="1.000000" stroke="none"/><path d="M0 0L-45.0107 -3.05176e-05" fill="none" stroke="#000000" stroke-opacity="1.000000" stroke-width="2" stroke-dasharray="0 0" transform="matrix(1 0 0 1 212.737 459.509)"/><path d="M51.02 0L40.628 -6L40.628 6L51.02 0Z" transform="matrix(1 0 0 1 262.737 459.437)" fill="#000000" fill-opacity="1.000000" stroke="none"/><path d="M0 0L45.02 0" fill="none" stroke="#000000" stroke-opacity="1.000000" stroke-width="2" stroke-dasharray="0 0" transform="matrix(1 0 0 1 262.737 459.437)"/><path d="M1.40137 16L2.70361 16L2.70361 11.9258L4.39551 11.9258C6.6377 11.9258 8.17578 10.9175 8.17578 8.74707C8.17578 6.5083 6.6377 5.73926 4.32715 5.73926L1.40137 5.73926L1.40137 16ZM2.70361 10.8765L2.70361 6.78857L4.17334 6.78857C5.97803 6.78857 6.88721 7.26367 6.88721 8.74707C6.88721 10.2168 6.03271 10.8765 4.22803 10.8765L2.70361 10.8765ZM11.4798 16.1812C11.8148 16.1812 12.0403 16.1401 12.2215 16.0684L12.0403 15.0908C11.9002 15.1182 11.8455 15.1182 11.7737 15.1182C11.5789 15.1182 11.4114 14.9644 11.4114 14.5713L11.4114 4.85742L10.1365 4.85742L10.1365 14.4893C10.1365 15.5659 10.5296 16.1812 11.4798 16.1812ZM15.8765 16.1812C16.813 16.1812 17.6675 15.6924 18.3956 15.0908L18.4366 15.0908L18.5494 16L19.5987 16L19.5987 11.3242C19.5987 9.44775 18.816 8.20361 16.9669 8.20361C15.7501 8.20361 14.6734 8.74707 13.9727 9.19482L14.4752 10.0767C15.0767 9.67334 15.8765 9.2666 16.7584 9.2666C18.0025 9.2666 18.3272 10.2031 18.3272 11.1841C15.0904 11.5464 13.6514 12.3735 13.6514 14.0244C13.6514 15.3984 14.6016 16.1812 15.8765 16.1812ZM16.2388 15.1592C15.4835 15.1592 14.8956 14.8105 14.8956 13.9424C14.8956 12.9614 15.7637 12.3325 18.3272 12.0249L18.3272 14.1509C17.5855 14.8105 16.9805 15.1592 16.2388 15.1592ZM22.0225 16L23.2974 16L23.2974 10.4834C24.0664 9.71436 24.5962 9.32129 25.3824 9.32129C26.3907 9.32129 26.8247 9.92285 26.8247 11.3516L26.8247 16L28.0962 16L28.0962 11.1841C28.0962 9.23926 27.3716 8.20361 25.7754 8.20361C24.7364 8.20361 23.9536 8.77441 23.2256 9.48877L23.1846 9.48877L23.0718 8.39844L22.0225 8.39844L22.0225 16ZM32.969 16.1812C33.4305 16.1812 33.9363 16.041 34.3704 15.9009L34.1175 14.9507C33.8645 15.0464 33.5159 15.1455 33.2493 15.1455C32.3675 15.1455 32.0735 14.6123 32.0735 13.6758L32.0735 9.43408L34.1311 9.43408L34.1311 8.39844L32.0735 8.39844L32.0735 6.26904L31.0105 6.26904L30.8567 8.39844L29.6673 8.4668L29.6673 9.43408L30.7986 9.43408L30.7986 13.6484C30.7986 15.1729 31.3455 16.1812 32.969 16.1812ZM37.2684 16.1812C38.205 16.1812 39.0595 15.6924 39.7875 15.0908L39.8285 15.0908L39.9413 16L40.9906 16L40.9906 11.3242C40.9906 9.44775 40.2079 8.20361 38.3588 8.20361C37.142 8.20361 36.0653 8.74707 35.3646 9.19482L35.8671 10.0767C36.4686 9.67334 37.2684 9.2666 38.1503 9.2666C39.3944 9.2666 39.7191 10.2031 39.7191 11.1841C36.4823 11.5464 35.0434 12.3735 35.0434 14.0244C35.0434 15.3984 35.9935 16.1812 37.2684 16.1812ZM37.6308 15.1592C36.8754 15.1592 36.2875 14.8105 36.2875 13.9424C36.2875 12.9614 37.1557 12.3325 39.7191 12.0249L39.7191 14.1509C38.9774 14.8105 38.3725 15.1592 37.6308 15.1592ZM43.4144 16L44.6893 16L44.6893 11.1123C45.1918 9.81348 45.9745 9.3623 46.6068 9.3623C46.9144 9.3623 47.0956 9.39307 47.3485 9.48877L47.5843 8.37109C47.3485 8.24463 47.1092 8.20361 46.7743 8.20361C45.9198 8.20361 45.1507 8.81885 44.6175 9.78271L44.5765 9.78271L44.4637 8.39844L43.4144 8.39844L43.4144 16ZM52.0952 16L53.3974 16L53.3974 11.9258L55.0893 11.9258C57.3315 11.9258 58.8696 10.9175 58.8696 8.74707C58.8696 6.5083 57.3315 5.73926 55.021 5.73926L52.0952 5.73926L52.0952 16ZM53.3974 10.8765L53.3974 6.78857L54.8671 6.78857C56.6718 6.78857 57.581 7.26367 57.581 8.74707C57.581 10.2168 56.7265 10.8765 54.9218 10.8765L53.3974 10.8765ZM60.8303 16L62.1052 16L62.1052 11.1123C62.6077 9.81348 63.3904 9.3623 64.0227 9.3623C64.3303 9.3623 64.5115 9.39307 64.7644 9.48877L65.0003 8.37109C64.7644 8.24463 64.5252 8.20361 64.1902 8.20361C63.3357 8.20361 62.5667 8.81885 62.0335 9.78271L61.9924 9.78271L61.8797 8.39844L60.8303 8.39844L60.8303 16ZM69.1742 16.1812C70.2099 16.1812 71.0233 15.8325 71.6933 15.3984L71.2318 14.5576C70.6713 14.937 70.0697 15.1592 69.328 15.1592C67.8857 15.1592 66.891 14.1235 66.809 12.5L71.9325 12.5C71.9599 12.3188 71.9872 12.0522 71.9872 11.772C71.9872 9.60156 70.8969 8.20361 68.9623 8.20361C67.1986 8.20361 65.5341 9.7417 65.5341 12.2061C65.5341 14.7114 67.1576 16.1812 69.1742 16.1812ZM66.7953 11.5908C66.9491 10.0903 67.8993 9.22559 68.9794 9.22559C70.1689 9.22559 70.8661 10.0493 70.8661 11.5908L66.7953 11.5908ZM75.8501 16.1812C77.6445 16.1812 78.6221 15.1592 78.6221 13.9287C78.6221 12.4863 77.4053 12.0386 76.3013 11.6182C75.4468 11.2969 74.6196 11.0303 74.6196 10.3022C74.6196 9.71436 75.0537 9.2085 76.0073 9.2085C76.6909 9.2085 77.2241 9.48877 77.7573 9.88184L78.3726 9.05469C77.771 8.59326 76.9439 8.20361 76.0073 8.20361C74.353 8.20361 73.3892 9.15381 73.3892 10.3569C73.3892 11.6455 74.5923 12.165 75.6553 12.5547C76.4961 12.8794 77.3916 13.228 77.3916 13.9971C77.3916 14.6567 76.9028 15.1865 75.8945 15.1865C74.9854 15.1865 74.2984 14.8242 73.6387 14.291L73.0098 15.1318C73.7378 15.7334 74.7735 16.1812 75.8501 16.1812ZM82.4021 16.1812C84.1965 16.1812 85.1741 15.1592 85.1741 13.9287C85.1741 12.4863 83.9573 12.0386 82.8533 11.6182C81.9988 11.2969 81.1716 11.0303 81.1716 10.3022C81.1716 9.71436 81.6057 9.2085 82.5593 9.2085C83.2429 9.2085 83.7761 9.48877 84.3093 9.88184L84.9245 9.05469C84.323 8.59326 83.4958 8.20361 82.5593 8.20361C80.905 8.20361 79.9411 9.15381 79.9411 10.3569C79.9411 11.6455 81.1443 12.165 82.2073 12.5547C83.0481 12.8794 83.9436 13.228 83.9436 13.9971C83.9436 14.6567 83.4548 15.1865 82.4465 15.1865C81.5373 15.1865 80.8503 14.8242 80.1907 14.291L79.5618 15.1318C80.2898 15.7334 81.3254 16.1812 82.4021 16.1812ZM89.1796 16.1812C90.229 16.1812 90.9843 15.6377 91.6987 14.8105L91.7431 14.8105L91.8388 16L92.9052 16L92.9052 8.39844L91.6303 8.39844L91.6303 13.7886C90.9023 14.6978 90.3554 15.0771 89.5727 15.0771C88.5644 15.0771 88.144 14.4756 88.144 13.0605L88.144 8.39844L86.8691 8.39844L86.8691 13.2144C86.8691 15.1455 87.5835 16.1812 89.1796 16.1812ZM95.4662 16L96.7411 16L96.7411 11.1123C97.2435 9.81348 98.0262 9.3623 98.6586 9.3623C98.9662 9.3623 99.1473 9.39307 99.4003 9.48877L99.6361 8.37109C99.4003 8.24463 99.161 8.20361 98.826 8.20361C97.9716 8.20361 97.2025 8.81885 96.6693 9.78271L96.6283 9.78271L96.5155 8.39844L95.4662 8.39844L95.4662 16ZM103.81 16.1812C104.846 16.1812 105.659 15.8325 106.329 15.3984L105.868 14.5576C105.307 14.937 104.706 15.1592 103.964 15.1592C102.521 15.1592 101.527 14.1235 101.445 12.5L106.568 12.5C106.596 12.3188 106.623 12.0522 106.623 11.772C106.623 9.60156 105.533 8.20361 103.598 8.20361C101.834 8.20361 100.17 9.7417 100.17 12.2061C100.17 14.7114 101.793 16.1812 103.81 16.1812ZM101.431 11.5908C101.585 10.0903 102.535 9.22559 103.615 9.22559C104.805 9.22559 105.502 10.0493 105.502 11.5908L101.431 11.5908Z" fill="#19191A" fill-opacity="1.000000" transform="matrix(1 0 0 1 53.1654 447.08)"/><path d="M1.40137 16L2.70361 16L2.70361 11.9258L4.39551 11.9258C6.6377 11.9258 8.17578 10.9175 8.17578 8.74707C8.17578 6.5083 6.6377 5.73926 4.32715 5.73926L1.40137 5.73926L1.40137 16ZM2.70361 10.8765L2.70361 6.78857L4.17334 6.78857C5.97803 6.78857 6.88721 7.26367 6.88721 8.74707C6.88721 10.2168 6.03271 10.8765 4.22803 10.8765L2.70361 10.8765ZM11.4798 16.1812C11.8148 16.1812 12.0403 16.1401 12.2215 16.0684L12.0403 15.0908C11.9002 15.1182 11.8455 15.1182 11.7737 15.1182C11.5789 15.1182 11.4114 14.9644 11.4114 14.5713L11.4114 4.85742L10.1365 4.85742L10.1365 14.4893C10.1365 15.5659 10.5296 16.1812 11.4798 16.1812ZM15.8765 16.1812C16.813 16.1812 17.6675 15.6924 18.3956 15.0908L18.4366 15.0908L18.5494 16L19.5987 16L19.5987 11.3242C19.5987 9.44775 18.816 8.20361 16.9669 8.20361C15.7501 8.20361 14.6734 8.74707 13.9727 9.19482L14.4752 10.0767C15.0767 9.67334 15.8765 9.2666 16.7584 9.2666C18.0025 9.2666 18.3272 10.2031 18.3272 11.1841C15.0904 11.5464 13.6514 12.3735 13.6514 14.0244C13.6514 15.3984 14.6016 16.1812 15.8765 16.1812ZM16.2388 15.1592C15.4835 15.1592 14.8956 14.8105 14.8956 13.9424C14.8956 12.9614 15.7637 12.3325 18.3272 12.0249L18.3272 14.1509C17.5855 14.8105 16.9805 15.1592 16.2388 15.1592ZM22.0225 16L23.2974 16L23.2974 10.4834C24.0664 9.71436 24.5962 9.32129 25.3824 9.32129C26.3907 9.32129 26.8247 9.92285 26.8247 11.3516L26.8247 16L28.0962 16L28.0962 11.1841C28.0962 9.23926 27.3716 8.20361 25.7754 8.20361C24.7364 8.20361 23.9536 8.77441 23.2256 9.48877L23.1846 9.48877L23.0718 8.39844L22.0225 8.39844L22.0225 16ZM32.969 16.1812C33.4305 16.1812 33.9363 16.041 34.3704 15.9009L34.1175 14.9507C33.8645 15.0464 33.5159 15.1455 33.2493 15.1455C32.3675 15.1455 32.0735 14.6123 32.0735 13.6758L32.0735 9.43408L34.1311 9.43408L34.1311 8.39844L32.0735 8.39844L32.0735 6.26904L31.0105 6.26904L30.8567 8.39844L29.6673 8.4668L29.6673 9.43408L30.7986 9.43408L30.7986 13.6484C30.7986 15.1729 31.3455 16.1812 32.969 16.1812ZM37.2684 16.1812C38.205 16.1812 39.0595 15.6924 39.7875 15.0908L39.8285 15.0908L39.9413 16L40.9906 16L40.9906 11.3242C40.9906 9.44775 40.2079 8.20361 38.3588 8.20361C37.142 8.20361 36.0653 8.74707 35.3646 9.19482L35.8671 10.0767C36.4686 9.67334 37.2684 9.2666 38.1503 9.2666C39.3944 9.2666 39.7191 10.2031 39.7191 11.1841C36.4823 11.5464 35.0434 12.3735 35.0434 14.0244C35.0434 15.3984 35.9935 16.1812 37.2684 16.1812ZM37.6308 15.1592C36.8754 15.1592 36.2875 14.8105 36.2875 13.9424C36.2875 12.9614 37.1557 12.3325 39.7191 12.0249L39.7191 14.1509C38.9774 14.8105 38.3725 15.1592 37.6308 15.1592ZM43.4144 16L44.6893 16L44.6893 11.1123C45.1918 9.81348 45.9745 9.3623 46.6068 9.3623C46.9144 9.3623 47.0956 9.39307 47.3485 9.48877L47.5843 8.37109C47.3485 8.24463 47.1092 8.20361 46.7743 8.20361C45.9198 8.20361 45.1507 8.81885 44.6175 9.78271L44.5765 9.78271L44.4637 8.39844L43.4144 8.39844L43.4144 16ZM52.0952 16L53.3974 16L53.3974 11.9258L55.0893 11.9258C57.3315 11.9258 58.8696 10.9175 58.8696 8.74707C58.8696 6.5083 57.3315 5.73926 55.021 5.73926L52.0952 5.73926L52.0952 16ZM53.3974 10.8765L53.3974 6.78857L54.8671 6.78857C56.6718 6.78857 57.581 7.26367 57.581 8.74707C57.581 10.2168 56.7265 10.8765 54.9218 10.8765L53.3974 10.8765ZM60.8303 16L62.1052 16L62.1052 11.1123C62.6077 9.81348 63.3904 9.3623 64.0227 9.3623C64.3303 9.3623 64.5115 9.39307 64.7644 9.48877L65.0003 8.37109C64.7644 8.24463 64.5252 8.20361 64.1902 8.20361C63.3357 8.20361 62.5667 8.81885 62.0335 9.78271L61.9924 9.78271L61.8797 8.39844L60.8303 8.39844L60.8303 16ZM69.1742 16.1812C70.2099 16.1812 71.0233 15.8325 71.6933 15.3984L71.2318 14.5576C70.6713 14.937 70.0697 15.1592 69.328 15.1592C67.8857 15.1592 66.891 14.1235 66.809 12.5L71.9325 12.5C71.9599 12.3188 71.9872 12.0522 71.9872 11.772C71.9872 9.60156 70.8969 8.20361 68.9623 8.20361C67.1986 8.20361 65.5341 9.7417 65.5341 12.2061C65.5341 14.7114 67.1576 16.1812 69.1742 16.1812ZM66.7953 11.5908C66.9491 10.0903 67.8993 9.22559 68.9794 9.22559C70.1689 9.22559 70.8661 10.0493 70.8661 11.5908L66.7953 11.5908ZM75.8501 16.1812C77.6445 16.1812 78.6221 15.1592 78.6221 13.9287C78.6221 12.4863 77.4053 12.0386 76.3013 11.6182C75.4468 11.2969 74.6196 11.0303 74.6196 10.3022C74.6196 9.71436 75.0537 9.2085 76.0073 9.2085C76.6909 9.2085 77.2241 9.48877 77.7573 9.88184L78.3726 9.05469C77.771 8.59326 76.9439 8.20361 76.0073 8.20361C74.353 8.20361 73.3892 9.15381 73.3892 10.3569C73.3892 11.6455 74.5923 12.165 75.6553 12.5547C76.4961 12.8794 77.3916 13.228 77.3916 13.9971C77.3916 14.6567 76.9028 15.1865 75.8945 15.1865C74.9854 15.1865 74.2984 14.8242 73.6387 14.291L73.0098 15.1318C73.7378 15.7334 74.7735 16.1812 75.8501 16.1812ZM82.4021 16.1812C84.1965 16.1812 85.1741 15.1592 85.1741 13.9287C85.1741 12.4863 83.9573 12.0386 82.8533 11.6182C81.9988 11.2969 81.1716 11.0303 81.1716 10.3022C81.1716 9.71436 81.6057 9.2085 82.5593 9.2085C83.2429 9.2085 83.7761 9.48877 84.3093 9.88184L84.9245 9.05469C84.323 8.59326 83.4958 8.20361 82.5593 8.20361C80.905 8.20361 79.9411 9.15381 79.9411 10.3569C79.9411 11.6455 81.1443 12.165 82.2073 12.5547C83.0481 12.8794 83.9436 13.228 83.9436 13.9971C83.9436 14.6567 83.4548 15.1865 82.4465 15.1865C81.5373 15.1865 80.8503 14.8242 80.1907 14.291L79.5618 15.1318C80.2898 15.7334 81.3254 16.1812 82.4021 16.1812ZM89.1796 16.1812C90.229 16.1812 90.9843 15.6377 91.6987 14.8105L91.7431 14.8105L91.8388 16L92.9052 16L92.9052 8.39844L91.6303 8.39844L91.6303 13.7886C90.9023 14.6978 90.3554 15.0771 89.5727 15.0771C88.5644 15.0771 88.144 14.4756 88.144 13.0605L88.144 8.39844L86.8691 8.39844L86.8691 13.2144C86.8691 15.1455 87.5835 16.1812 89.1796 16.1812ZM95.4662 16L96.7411 16L96.7411 11.1123C97.2435 9.81348 98.0262 9.3623 98.6586 9.3623C98.9662 9.3623 99.1473 9.39307 99.4003 9.48877L99.6361 8.37109C99.4003 8.24463 99.161 8.20361 98.826 8.20361C97.9716 8.20361 97.2025 8.81885 96.6693 9.78271L96.6283 9.78271L96.5155 8.39844L95.4662 8.39844L95.4662 16ZM103.81 16.1812C104.846 16.1812 105.659 15.8325 106.329 15.3984L105.868 14.5576C105.307 14.937 104.706 15.1592 103.964 15.1592C102.521 15.1592 101.527 14.1235 101.445 12.5L106.568 12.5C106.596 12.3188 106.623 12.0522 106.623 11.772C106.623 9.60156 105.533 8.20361 103.598 8.20361C101.834 8.20361 100.17 9.7417 100.17 12.2061C100.17 14.7114 101.793 16.1812 103.81 16.1812ZM101.431 11.5908C101.585 10.0903 102.535 9.22559 103.615 9.22559C104.805 9.22559 105.502 10.0493 105.502 11.5908L101.431 11.5908Z" fill="#19191A" fill-opacity="1.000000" transform="matrix(1 0 0 1 315.023 448.366)"/></svg>